<svg xmlns="http://www.w3.org/2000/svg" xmlns:xlink="http://www.w3.org/1999/xlink" width="216" zoomAndPan="magnify" viewBox="0 0 162 34.499999" height="46" preserveAspectRatio="xMidYMid meet" version="1.0"><defs><g/><clipPath id="id1"><path d="M 58 3 L 83 3 L 83 34.007812 L 58 34.007812 Z M 58 3 " clip-rule="nonzero"/></clipPath></defs><g fill="#38b6ff" fill-opacity="1"><g transform="translate(2.927318, 27.626711)"><g><path d="M 11.5 0 L 11.5 -4.84375 L 17.515625 -4.84375 L 17.515625 -19.421875 L 11.5 -19.421875 L 11.5 -24.28125 L 20.75 -24.28125 L 25.609375 -19.421875 L 25.609375 -4.84375 L 20.75 0 Z M 2.140625 -24.28125 L 10.234375 -24.28125 L 10.234375 0 L 2.140625 0 Z M 2.140625 -24.28125 "/></g></g></g><g fill="#38b6ff" fill-opacity="1"><g transform="translate(30.10605, 27.626711)"><g><path d="M 9.671875 -4.9375 L 12.71875 -4.9375 L 12.71875 0 L 6.5 0 L 1.578125 -4.84375 L 1.578125 -19.421875 L 6.5 -24.28125 L 12.71875 -24.28125 L 12.71875 -19.359375 L 9.671875 -19.359375 Z M 17.09375 -19.359375 L 14 -19.359375 L 14 -24.28125 L 20.265625 -24.28125 L 25.171875 -19.421875 L 25.171875 -4.84375 L 20.265625 0 L 14 0 L 14 -4.9375 L 17.09375 -4.9375 Z M 17.09375 -19.359375 "/></g></g></g><g clip-path="url(#id1)"><g fill="#38b6ff" fill-opacity="1"><g transform="translate(56.864118, 27.626711)"><g><path d="M 12.671875 0 L 6.625 0 L 1.75 -4.84375 L 1.75 -19.421875 L 6.625 -24.28125 L 12.859375 -24.28125 L 12.859375 -19.421875 L 9.84375 -19.421875 L 9.84375 -4.84375 L 16.25 -4.84375 L 24.125 2.59375 L 19.796875 6.8125 Z M 25.234375 -4.84375 L 21.734375 -1.3125 L 17.140625 -5.5625 L 17.140625 -19.421875 L 14.109375 -19.421875 L 14.109375 -24.28125 L 20.375 -24.28125 L 25.234375 -19.421875 Z M 25.234375 -4.84375 "/></g></g></g></g><g fill="#38b6ff" fill-opacity="1"><g transform="translate(83.878243, 27.626711)"><g><path d="M 7.28125 -17.734375 L 15.703125 -17.734375 L 15.703125 0 L 7.28125 0 Z M 0.953125 -24.28125 L 22.03125 -24.28125 L 22.03125 -18.984375 L 0.953125 -18.984375 Z M 0.953125 -24.28125 "/></g></g></g><g fill="#38b6ff" fill-opacity="1"><g transform="translate(106.850308, 27.626711)"><g><path d="M 10.234375 -9.96875 L 10.234375 0 L 2.140625 0 L 2.140625 -24.28125 L 10.234375 -24.28125 L 10.234375 -14.65625 L 17.96875 -14.65625 L 17.96875 -9.96875 Z M 11.5 -19.578125 L 11.5 -24.28125 L 24.15625 -24.28125 L 24.15625 -17.25 L 16.53125 -17.25 L 16.53125 -19.578125 Z M 11.5 0 L 11.5 -4.84375 L 16.0625 -4.84375 L 16.0625 -7.28125 L 24.15625 -7.28125 L 24.15625 0 Z M 11.5 0 "/></g></g></g><g fill="#38b6ff" fill-opacity="1"><g transform="translate(132.730457, 27.626711)"><g><path d="M 9.859375 0 L 6.640625 0 L 1.78125 -4.84375 L 1.78125 -19.421875 L 6.640625 -24.28125 L 9.859375 -24.28125 Z M 11.140625 -19.421875 L 11.140625 -24.28125 L 19.765625 -24.28125 L 24.609375 -19.421875 L 24.609375 -14.546875 L 16.515625 -14.546875 L 16.515625 -19.421875 Z M 11.140625 0 L 11.140625 -4.84375 L 16.515625 -4.84375 L 16.515625 -8.390625 L 24.609375 -8.390625 L 24.609375 -4.84375 L 19.765625 0 Z M 11.140625 0 "/></g></g></g></svg>